<mxfile host="app.diagrams.net" modified="2023-07-20T00:16:51.994Z" agent="Mozilla/5.0 (Windows NT 10.0; Win64; x64) AppleWebKit/537.36 (KHTML, like Gecko) Chrome/114.0.0.0 Safari/537.36" etag="BMaD7_6CF02GtllW94Wn" version="21.6.3" type="device">
  <diagram name="Page-1" id="Pkra7cTUVQteoleOSE2m">
    <mxGraphModel dx="1357" dy="905" grid="1" gridSize="10" guides="1" tooltips="1" connect="1" arrows="1" fold="1" page="1" pageScale="1" pageWidth="827" pageHeight="1169" math="0" shadow="0">
      <root>
        <mxCell id="0" />
        <mxCell id="1" parent="0" />
        <mxCell id="H2EcndkGjDvPkDDes_c0-3" value="" style="rounded=0;whiteSpace=wrap;html=1;" parent="1" vertex="1">
          <mxGeometry x="210" width="410" height="740" as="geometry" />
        </mxCell>
        <mxCell id="H2EcndkGjDvPkDDes_c0-6" value="&lt;b&gt;&lt;font style=&quot;font-size: 16px;&quot; face=&quot;Garamond&quot;&gt;&amp;nbsp; World Name:&amp;nbsp;&lt;/font&gt;&lt;/b&gt;" style="rounded=1;whiteSpace=wrap;html=1;align=left;fillColor=#ffe6cc;strokeColor=#d79b00;" parent="1" vertex="1">
          <mxGeometry x="225" y="150" width="380" height="60" as="geometry" />
        </mxCell>
        <mxCell id="H2EcndkGjDvPkDDes_c0-7" value="&lt;b&gt;&lt;font style=&quot;font-size: 16px;&quot; face=&quot;Garamond&quot;&gt;&amp;nbsp; Theme:&amp;nbsp;&lt;/font&gt;&lt;/b&gt;" style="rounded=1;whiteSpace=wrap;html=1;align=left;fillColor=#ffe6cc;strokeColor=#d79b00;" parent="1" vertex="1">
          <mxGeometry x="223.05" y="310" width="380" height="60" as="geometry" />
        </mxCell>
        <mxCell id="H2EcndkGjDvPkDDes_c0-12" value="&lt;span&gt;&lt;font style=&quot;font-size: 16px;&quot; face=&quot;Garamond&quot;&gt;&amp;nbsp; Number of players:&lt;/font&gt;&lt;/span&gt;" style="rounded=1;whiteSpace=wrap;html=1;align=left;fillColor=#ffe6cc;strokeColor=#d79b00;fontStyle=1" parent="1" vertex="1">
          <mxGeometry x="224" y="230" width="380" height="60" as="geometry" />
        </mxCell>
        <mxCell id="H2EcndkGjDvPkDDes_c0-14" value="&amp;nbsp;&lt;b style=&quot;border-color: var(--border-color); font-family: Garamond; font-size: 16px;&quot;&gt;Mediaeval&lt;/b&gt;" style="rounded=0;whiteSpace=wrap;html=1;align=left;" parent="1" vertex="1">
          <mxGeometry x="294" y="330" width="120" height="20" as="geometry" />
        </mxCell>
        <mxCell id="H2EcndkGjDvPkDDes_c0-16" value="&amp;nbsp;4" style="rounded=0;whiteSpace=wrap;html=1;align=left;" parent="1" vertex="1">
          <mxGeometry x="380" y="250" width="50" height="20" as="geometry" />
        </mxCell>
        <mxCell id="H2EcndkGjDvPkDDes_c0-17" value="" style="html=1;verticalLabelPosition=bottom;labelBackgroundColor=#ffffff;verticalAlign=top;shadow=0;dashed=0;strokeWidth=2;shape=mxgraph.ios7.misc.down;strokeColor=#000000;" parent="1" vertex="1">
          <mxGeometry x="398" y="337" width="12" height="6" as="geometry" />
        </mxCell>
        <mxCell id="H2EcndkGjDvPkDDes_c0-18" value="" style="html=1;verticalLabelPosition=bottom;labelBackgroundColor=#ffffff;verticalAlign=top;shadow=0;dashed=0;strokeWidth=2;shape=mxgraph.ios7.misc.down;strokeColor=#000000;" parent="1" vertex="1">
          <mxGeometry x="414" y="257" width="12" height="6" as="geometry" />
        </mxCell>
        <mxCell id="H2EcndkGjDvPkDDes_c0-19" value="&amp;nbsp; &lt;font face=&quot;Garamond&quot;&gt;&lt;span style=&quot;font-size: 16px;&quot;&gt;&lt;b&gt;Dragon City&lt;/b&gt;&lt;/span&gt;&lt;/font&gt;" style="rounded=0;whiteSpace=wrap;html=1;align=left;" parent="1" vertex="1">
          <mxGeometry x="340" y="170" width="120" height="20" as="geometry" />
        </mxCell>
        <mxCell id="H2EcndkGjDvPkDDes_c0-21" value="&lt;b&gt;&lt;font style=&quot;font-size: 16px;&quot; face=&quot;Garamond&quot;&gt;&amp;nbsp; Mode:&amp;nbsp;&lt;/font&gt;&lt;/b&gt;" style="rounded=1;whiteSpace=wrap;html=1;align=left;fillColor=#ffe6cc;strokeColor=#d79b00;" parent="1" vertex="1">
          <mxGeometry x="223.05" y="390" width="380" height="60" as="geometry" />
        </mxCell>
        <mxCell id="H2EcndkGjDvPkDDes_c0-22" value="&amp;nbsp;&lt;font face=&quot;Garamond&quot;&gt;&lt;span style=&quot;font-size: 16px;&quot;&gt;&lt;b&gt;Dungeon Master&lt;/b&gt;&lt;/span&gt;&lt;/font&gt;" style="rounded=0;whiteSpace=wrap;html=1;align=left;" parent="1" vertex="1">
          <mxGeometry x="294" y="410" width="156" height="20" as="geometry" />
        </mxCell>
        <mxCell id="H2EcndkGjDvPkDDes_c0-23" value="" style="html=1;verticalLabelPosition=bottom;labelBackgroundColor=#ffffff;verticalAlign=top;shadow=0;dashed=0;strokeWidth=2;shape=mxgraph.ios7.misc.down;strokeColor=#000000;" parent="1" vertex="1">
          <mxGeometry x="433" y="417" width="12" height="6" as="geometry" />
        </mxCell>
        <mxCell id="H2EcndkGjDvPkDDes_c0-25" value="&lt;b&gt;&lt;font style=&quot;font-size: 16px;&quot; face=&quot;Garamond&quot;&gt;&amp;nbsp; Tiles:&amp;nbsp;&lt;/font&gt;&lt;/b&gt;" style="rounded=1;whiteSpace=wrap;html=1;align=left;fillColor=#ffe6cc;strokeColor=#d79b00;" parent="1" vertex="1">
          <mxGeometry x="223.05" y="470" width="380" height="60" as="geometry" />
        </mxCell>
        <mxCell id="H2EcndkGjDvPkDDes_c0-26" value="&amp;nbsp;&lt;font face=&quot;Garamond&quot;&gt;&lt;span style=&quot;font-size: 16px;&quot;&gt;&lt;b&gt;All Tiles&lt;/b&gt;&lt;/span&gt;&lt;/font&gt;" style="rounded=0;whiteSpace=wrap;html=1;align=left;" parent="1" vertex="1">
          <mxGeometry x="294" y="490" width="120" height="20" as="geometry" />
        </mxCell>
        <mxCell id="H2EcndkGjDvPkDDes_c0-27" value="" style="html=1;verticalLabelPosition=bottom;labelBackgroundColor=#ffffff;verticalAlign=top;shadow=0;dashed=0;strokeWidth=2;shape=mxgraph.ios7.misc.down;strokeColor=#000000;" parent="1" vertex="1">
          <mxGeometry x="398" y="497" width="12" height="6" as="geometry" />
        </mxCell>
        <mxCell id="H2EcndkGjDvPkDDes_c0-28" value="&lt;b&gt;&lt;font style=&quot;font-size: 16px;&quot; face=&quot;Garamond&quot;&gt;&amp;nbsp; Monsters:&amp;nbsp;&lt;/font&gt;&lt;/b&gt;" style="rounded=1;whiteSpace=wrap;html=1;align=left;fillColor=#ffe6cc;strokeColor=#d79b00;" parent="1" vertex="1">
          <mxGeometry x="224" y="550" width="380" height="60" as="geometry" />
        </mxCell>
        <mxCell id="H2EcndkGjDvPkDDes_c0-29" value="&amp;nbsp;&lt;font face=&quot;Garamond&quot;&gt;&lt;span style=&quot;font-size: 16px;&quot;&gt;&lt;b&gt;Yes&lt;/b&gt;&lt;/span&gt;&lt;/font&gt;" style="rounded=0;whiteSpace=wrap;html=1;align=left;" parent="1" vertex="1">
          <mxGeometry x="309.95" y="570" width="60.05" height="20" as="geometry" />
        </mxCell>
        <mxCell id="H2EcndkGjDvPkDDes_c0-30" value="" style="html=1;verticalLabelPosition=bottom;labelBackgroundColor=#ffffff;verticalAlign=top;shadow=0;dashed=0;strokeWidth=2;shape=mxgraph.ios7.misc.down;strokeColor=#000000;" parent="1" vertex="1">
          <mxGeometry x="353.95" y="577" width="12" height="6" as="geometry" />
        </mxCell>
        <mxCell id="H2EcndkGjDvPkDDes_c0-32" value="" style="rounded=1;whiteSpace=wrap;html=1;align=left;fillColor=#d5e8d4;strokeColor=#82b366;" parent="1" vertex="1">
          <mxGeometry x="225" y="630" width="380" height="60" as="geometry" />
        </mxCell>
        <mxCell id="H2EcndkGjDvPkDDes_c0-33" value="&lt;font style=&quot;font-size: 20px;&quot;&gt;&amp;nbsp;&lt;font style=&quot;font-size: 20px;&quot; face=&quot;Garamond&quot;&gt;&lt;b style=&quot;&quot;&gt;Generate Map&lt;/b&gt;&lt;/font&gt;&lt;/font&gt;" style="rounded=0;whiteSpace=wrap;html=1;align=left;" parent="1" vertex="1">
          <mxGeometry x="342.74" y="645" width="142.52" height="30" as="geometry" />
        </mxCell>
        <mxCell id="dNBto38a_Y-bgGz9DVO5-2" value="" style="shape=image;verticalLabelPosition=bottom;labelBackgroundColor=default;verticalAlign=top;aspect=fixed;imageAspect=0;image=https://cdn.discordapp.com/attachments/1128547440669229178/1131374856236191895/image.png;" vertex="1" parent="1">
          <mxGeometry x="214" y="20" width="400" height="110.9" as="geometry" />
        </mxCell>
      </root>
    </mxGraphModel>
  </diagram>
</mxfile>
